<mxfile host="app.diagrams.net" modified="2020-07-31T08:16:56.835Z" agent="5.0 (Windows NT 10.0; Win64; x64) AppleWebKit/537.36 (KHTML, like Gecko) Chrome/84.0.4147.105 Safari/537.36" etag="yVSem3K9o9tyG7Gc_JlY" version="13.5.7" type="github">
  <diagram id="R2lEEEUBdFMjLlhIrx00" name="Page-1">
    <mxGraphModel dx="1117" dy="1770" grid="1" gridSize="10" guides="1" tooltips="1" connect="1" arrows="1" fold="1" page="1" pageScale="1" pageWidth="850" pageHeight="1100" math="0" shadow="0" extFonts="Permanent Marker^https://fonts.googleapis.com/css?family=Permanent+Marker">
      <root>
        <mxCell id="0" />
        <mxCell id="1" parent="0" />
        <mxCell id="_ffmf1GVqU57bWkAei6Z-11" value="Student" style="whiteSpace=wrap;html=1;align=center;" vertex="1" parent="1">
          <mxGeometry x="170" y="78.5" width="100" height="40" as="geometry" />
        </mxCell>
        <mxCell id="_ffmf1GVqU57bWkAei6Z-12" value="EnrollsIn" style="shape=rhombus;perimeter=rhombusPerimeter;whiteSpace=wrap;html=1;align=center;" vertex="1" parent="1">
          <mxGeometry x="320" y="68.5" width="120" height="60" as="geometry" />
        </mxCell>
        <mxCell id="_ffmf1GVqU57bWkAei6Z-13" value="Given Names" style="ellipse;whiteSpace=wrap;html=1;align=center;" vertex="1" parent="1">
          <mxGeometry x="30" y="30" width="92.5" height="37" as="geometry" />
        </mxCell>
        <mxCell id="_ffmf1GVqU57bWkAei6Z-14" value="Surname" style="ellipse;whiteSpace=wrap;html=1;align=center;" vertex="1" parent="1">
          <mxGeometry x="30" y="80" width="92.5" height="37" as="geometry" />
        </mxCell>
        <mxCell id="_ffmf1GVqU57bWkAei6Z-15" value="DOB" style="ellipse;whiteSpace=wrap;html=1;align=center;" vertex="1" parent="1">
          <mxGeometry x="30" y="130" width="92.5" height="37" as="geometry" />
        </mxCell>
        <mxCell id="_ffmf1GVqU57bWkAei6Z-16" value="YearEnrolled" style="ellipse;whiteSpace=wrap;html=1;align=center;" vertex="1" parent="1">
          <mxGeometry x="30" y="180" width="92.5" height="37" as="geometry" />
        </mxCell>
        <mxCell id="_ffmf1GVqU57bWkAei6Z-17" value="&lt;p style=&quot;line-height: 120%&quot;&gt;StudentID&lt;/p&gt;" style="ellipse;whiteSpace=wrap;html=1;align=center;fontStyle=4;" vertex="1" parent="1">
          <mxGeometry x="26.25" y="-20" width="100" height="40" as="geometry" />
        </mxCell>
        <mxCell id="_ffmf1GVqU57bWkAei6Z-21" value="" style="endArrow=none;html=1;rounded=0;exitX=1;exitY=0.5;exitDx=0;exitDy=0;entryX=0;entryY=0.5;entryDx=0;entryDy=0;" edge="1" parent="1" source="_ffmf1GVqU57bWkAei6Z-17" target="_ffmf1GVqU57bWkAei6Z-11">
          <mxGeometry relative="1" as="geometry">
            <mxPoint x="320" y="180" as="sourcePoint" />
            <mxPoint x="480" y="180" as="targetPoint" />
          </mxGeometry>
        </mxCell>
        <mxCell id="_ffmf1GVqU57bWkAei6Z-22" value="" style="endArrow=none;html=1;rounded=0;exitX=1;exitY=0.5;exitDx=0;exitDy=0;entryX=0;entryY=0.5;entryDx=0;entryDy=0;" edge="1" parent="1" source="_ffmf1GVqU57bWkAei6Z-13" target="_ffmf1GVqU57bWkAei6Z-11">
          <mxGeometry relative="1" as="geometry">
            <mxPoint x="200" y="200" as="sourcePoint" />
            <mxPoint x="243.75" y="290" as="targetPoint" />
          </mxGeometry>
        </mxCell>
        <mxCell id="_ffmf1GVqU57bWkAei6Z-23" value="" style="endArrow=none;html=1;rounded=0;exitX=1;exitY=0.5;exitDx=0;exitDy=0;entryX=0;entryY=0.5;entryDx=0;entryDy=0;" edge="1" parent="1" source="_ffmf1GVqU57bWkAei6Z-14" target="_ffmf1GVqU57bWkAei6Z-11">
          <mxGeometry relative="1" as="geometry">
            <mxPoint x="160" y="210" as="sourcePoint" />
            <mxPoint x="203.75" y="300" as="targetPoint" />
          </mxGeometry>
        </mxCell>
        <mxCell id="_ffmf1GVqU57bWkAei6Z-24" value="" style="endArrow=none;html=1;rounded=0;exitX=1;exitY=0.5;exitDx=0;exitDy=0;entryX=0;entryY=0.5;entryDx=0;entryDy=0;" edge="1" parent="1" source="_ffmf1GVqU57bWkAei6Z-15" target="_ffmf1GVqU57bWkAei6Z-11">
          <mxGeometry relative="1" as="geometry">
            <mxPoint x="180" y="190" as="sourcePoint" />
            <mxPoint x="223.75" y="280" as="targetPoint" />
          </mxGeometry>
        </mxCell>
        <mxCell id="_ffmf1GVqU57bWkAei6Z-25" value="" style="endArrow=none;html=1;rounded=0;entryX=1;entryY=0.5;entryDx=0;entryDy=0;exitX=0;exitY=0.5;exitDx=0;exitDy=0;" edge="1" parent="1" source="_ffmf1GVqU57bWkAei6Z-11" target="_ffmf1GVqU57bWkAei6Z-16">
          <mxGeometry relative="1" as="geometry">
            <mxPoint x="180" y="200" as="sourcePoint" />
            <mxPoint x="213.75" y="260" as="targetPoint" />
          </mxGeometry>
        </mxCell>
        <mxCell id="_ffmf1GVqU57bWkAei6Z-34" value="" style="shape=link;html=1;rounded=0;targetPerimeterSpacing=0;strokeWidth=1;exitX=1;exitY=0.5;exitDx=0;exitDy=0;" edge="1" parent="1" source="_ffmf1GVqU57bWkAei6Z-11" target="_ffmf1GVqU57bWkAei6Z-12">
          <mxGeometry relative="1" as="geometry">
            <mxPoint x="220" y="110" as="sourcePoint" />
            <mxPoint x="390" y="170" as="targetPoint" />
          </mxGeometry>
        </mxCell>
        <mxCell id="_ffmf1GVqU57bWkAei6Z-35" value="N" style="resizable=0;html=1;align=right;verticalAlign=bottom;" connectable="0" vertex="1" parent="_ffmf1GVqU57bWkAei6Z-34">
          <mxGeometry x="1" relative="1" as="geometry" />
        </mxCell>
        <mxCell id="_ffmf1GVqU57bWkAei6Z-36" value="Program" style="whiteSpace=wrap;html=1;align=center;" vertex="1" parent="1">
          <mxGeometry x="480" y="78.5" width="100" height="40" as="geometry" />
        </mxCell>
        <mxCell id="_ffmf1GVqU57bWkAei6Z-37" value="" style="endArrow=none;html=1;rounded=0;strokeWidth=1;entryX=1;entryY=0.5;entryDx=0;entryDy=0;exitX=0;exitY=0.5;exitDx=0;exitDy=0;" edge="1" parent="1" source="_ffmf1GVqU57bWkAei6Z-36" target="_ffmf1GVqU57bWkAei6Z-12">
          <mxGeometry relative="1" as="geometry">
            <mxPoint x="350" y="60" as="sourcePoint" />
            <mxPoint x="510" y="60" as="targetPoint" />
          </mxGeometry>
        </mxCell>
        <mxCell id="_ffmf1GVqU57bWkAei6Z-38" value="1" style="resizable=0;html=1;align=right;verticalAlign=bottom;" connectable="0" vertex="1" parent="_ffmf1GVqU57bWkAei6Z-37">
          <mxGeometry x="1" relative="1" as="geometry" />
        </mxCell>
        <mxCell id="_ffmf1GVqU57bWkAei6Z-39" value="Name" style="ellipse;whiteSpace=wrap;html=1;align=center;" vertex="1" parent="1">
          <mxGeometry x="650" y="78.5" width="92.5" height="40" as="geometry" />
        </mxCell>
        <mxCell id="_ffmf1GVqU57bWkAei6Z-40" value="CreditPoints" style="ellipse;whiteSpace=wrap;html=1;align=center;" vertex="1" parent="1">
          <mxGeometry x="650" y="128.5" width="92.5" height="37" as="geometry" />
        </mxCell>
        <mxCell id="_ffmf1GVqU57bWkAei6Z-42" value="YearCommenced" style="ellipse;whiteSpace=wrap;html=1;align=center;" vertex="1" parent="1">
          <mxGeometry x="643.13" y="177.25" width="106.25" height="42.5" as="geometry" />
        </mxCell>
        <mxCell id="_ffmf1GVqU57bWkAei6Z-43" value="&lt;p style=&quot;line-height: 120%&quot;&gt;ProgramId&lt;/p&gt;" style="ellipse;whiteSpace=wrap;html=1;align=center;fontStyle=4;" vertex="1" parent="1">
          <mxGeometry x="646.25" y="27" width="100" height="40" as="geometry" />
        </mxCell>
        <mxCell id="_ffmf1GVqU57bWkAei6Z-55" value="" style="endArrow=none;html=1;rounded=0;exitX=1;exitY=0.5;exitDx=0;exitDy=0;entryX=0;entryY=0.5;entryDx=0;entryDy=0;" edge="1" source="_ffmf1GVqU57bWkAei6Z-36" parent="1" target="_ffmf1GVqU57bWkAei6Z-43">
          <mxGeometry relative="1" as="geometry">
            <mxPoint x="359.9999999999999" y="230" as="sourcePoint" />
            <mxPoint x="403.75" y="328.5" as="targetPoint" />
          </mxGeometry>
        </mxCell>
        <mxCell id="_ffmf1GVqU57bWkAei6Z-56" value="" style="endArrow=none;html=1;rounded=0;entryX=0;entryY=0.5;entryDx=0;entryDy=0;" edge="1" parent="1" target="_ffmf1GVqU57bWkAei6Z-39">
          <mxGeometry relative="1" as="geometry">
            <mxPoint x="580" y="100" as="sourcePoint" />
            <mxPoint x="403.75" y="328.5" as="targetPoint" />
          </mxGeometry>
        </mxCell>
        <mxCell id="_ffmf1GVqU57bWkAei6Z-57" value="" style="endArrow=none;html=1;rounded=0;entryX=0;entryY=0.5;entryDx=0;entryDy=0;" edge="1" parent="1" target="_ffmf1GVqU57bWkAei6Z-40">
          <mxGeometry relative="1" as="geometry">
            <mxPoint x="580" y="100" as="sourcePoint" />
            <mxPoint x="403.75" y="328.5" as="targetPoint" />
          </mxGeometry>
        </mxCell>
        <mxCell id="_ffmf1GVqU57bWkAei6Z-58" value="" style="endArrow=none;html=1;rounded=0;exitX=1;exitY=0.5;exitDx=0;exitDy=0;entryX=0;entryY=0.5;entryDx=0;entryDy=0;" edge="1" source="_ffmf1GVqU57bWkAei6Z-36" parent="1" target="_ffmf1GVqU57bWkAei6Z-42">
          <mxGeometry relative="1" as="geometry">
            <mxPoint x="356.2499999999993" y="378.4999999999998" as="sourcePoint" />
            <mxPoint x="550" y="270" as="targetPoint" />
          </mxGeometry>
        </mxCell>
        <mxCell id="_ffmf1GVqU57bWkAei6Z-60" value="Contains" style="shape=rhombus;double=1;perimeter=rhombusPerimeter;whiteSpace=wrap;html=1;align=center;" vertex="1" parent="1">
          <mxGeometry x="470" y="230" width="120" height="60" as="geometry" />
        </mxCell>
        <mxCell id="_ffmf1GVqU57bWkAei6Z-61" value="Year" style="ellipse;whiteSpace=wrap;html=1;align=center;" vertex="1" parent="1">
          <mxGeometry x="330" y="200" width="75" height="30" as="geometry" />
        </mxCell>
        <mxCell id="_ffmf1GVqU57bWkAei6Z-62" value="Semester" style="ellipse;whiteSpace=wrap;html=1;align=center;" vertex="1" parent="1">
          <mxGeometry x="330" y="260" width="75" height="30" as="geometry" />
        </mxCell>
        <mxCell id="_ffmf1GVqU57bWkAei6Z-63" value="" style="endArrow=none;html=1;rounded=0;strokeWidth=1;exitX=1;exitY=0.5;exitDx=0;exitDy=0;" edge="1" parent="1" source="_ffmf1GVqU57bWkAei6Z-61">
          <mxGeometry relative="1" as="geometry">
            <mxPoint x="240" y="220" as="sourcePoint" />
            <mxPoint x="470" y="260" as="targetPoint" />
          </mxGeometry>
        </mxCell>
        <mxCell id="_ffmf1GVqU57bWkAei6Z-64" value="" style="endArrow=none;html=1;rounded=0;strokeWidth=1;exitX=1;exitY=0.5;exitDx=0;exitDy=0;entryX=0;entryY=0.5;entryDx=0;entryDy=0;" edge="1" parent="1" source="_ffmf1GVqU57bWkAei6Z-62" target="_ffmf1GVqU57bWkAei6Z-60">
          <mxGeometry relative="1" as="geometry">
            <mxPoint x="220" y="370" as="sourcePoint" />
            <mxPoint x="380" y="370" as="targetPoint" />
          </mxGeometry>
        </mxCell>
        <mxCell id="_ffmf1GVqU57bWkAei6Z-65" value="" style="endArrow=none;html=1;rounded=0;strokeWidth=1;exitX=0.5;exitY=1;exitDx=0;exitDy=0;entryX=0.5;entryY=0;entryDx=0;entryDy=0;" edge="1" parent="1" source="_ffmf1GVqU57bWkAei6Z-36" target="_ffmf1GVqU57bWkAei6Z-60">
          <mxGeometry relative="1" as="geometry">
            <mxPoint x="240" y="220" as="sourcePoint" />
            <mxPoint x="400" y="220" as="targetPoint" />
          </mxGeometry>
        </mxCell>
        <mxCell id="_ffmf1GVqU57bWkAei6Z-66" value="1&amp;nbsp;" style="resizable=0;html=1;align=right;verticalAlign=bottom;" connectable="0" vertex="1" parent="_ffmf1GVqU57bWkAei6Z-65">
          <mxGeometry x="1" relative="1" as="geometry" />
        </mxCell>
        <mxCell id="_ffmf1GVqU57bWkAei6Z-68" value="Name" style="ellipse;whiteSpace=wrap;html=1;align=center;" vertex="1" parent="1">
          <mxGeometry x="650" y="391.5" width="92.5" height="40" as="geometry" />
        </mxCell>
        <mxCell id="_ffmf1GVqU57bWkAei6Z-69" value="CreditPoints" style="ellipse;whiteSpace=wrap;html=1;align=center;" vertex="1" parent="1">
          <mxGeometry x="650" y="441.5" width="92.5" height="37" as="geometry" />
        </mxCell>
        <mxCell id="_ffmf1GVqU57bWkAei6Z-70" value="YearCommenced" style="ellipse;whiteSpace=wrap;html=1;align=center;" vertex="1" parent="1">
          <mxGeometry x="643.13" y="490.25" width="106.25" height="42.5" as="geometry" />
        </mxCell>
        <mxCell id="_ffmf1GVqU57bWkAei6Z-71" value="&lt;p style=&quot;line-height: 120%&quot;&gt;CourseId&lt;/p&gt;" style="ellipse;whiteSpace=wrap;html=1;align=center;fontStyle=4;" vertex="1" parent="1">
          <mxGeometry x="646.25" y="340" width="100" height="40" as="geometry" />
        </mxCell>
        <mxCell id="_ffmf1GVqU57bWkAei6Z-72" value="" style="endArrow=none;html=1;rounded=0;exitX=1;exitY=0.5;exitDx=0;exitDy=0;entryX=0;entryY=0.5;entryDx=0;entryDy=0;" edge="1" target="_ffmf1GVqU57bWkAei6Z-71" parent="1">
          <mxGeometry relative="1" as="geometry">
            <mxPoint x="580" y="411.5" as="sourcePoint" />
            <mxPoint x="403.75" y="641.5" as="targetPoint" />
          </mxGeometry>
        </mxCell>
        <mxCell id="_ffmf1GVqU57bWkAei6Z-73" value="" style="endArrow=none;html=1;rounded=0;entryX=0;entryY=0.5;entryDx=0;entryDy=0;" edge="1" target="_ffmf1GVqU57bWkAei6Z-68" parent="1">
          <mxGeometry relative="1" as="geometry">
            <mxPoint x="580" y="413" as="sourcePoint" />
            <mxPoint x="403.75" y="641.5" as="targetPoint" />
          </mxGeometry>
        </mxCell>
        <mxCell id="_ffmf1GVqU57bWkAei6Z-74" value="" style="endArrow=none;html=1;rounded=0;entryX=0;entryY=0.5;entryDx=0;entryDy=0;" edge="1" target="_ffmf1GVqU57bWkAei6Z-69" parent="1">
          <mxGeometry relative="1" as="geometry">
            <mxPoint x="580" y="413" as="sourcePoint" />
            <mxPoint x="403.75" y="641.5" as="targetPoint" />
          </mxGeometry>
        </mxCell>
        <mxCell id="_ffmf1GVqU57bWkAei6Z-75" value="" style="endArrow=none;html=1;rounded=0;exitX=1;exitY=0.5;exitDx=0;exitDy=0;entryX=0;entryY=0.5;entryDx=0;entryDy=0;" edge="1" target="_ffmf1GVqU57bWkAei6Z-70" parent="1">
          <mxGeometry relative="1" as="geometry">
            <mxPoint x="580" y="411.5" as="sourcePoint" />
            <mxPoint x="550" y="583" as="targetPoint" />
          </mxGeometry>
        </mxCell>
        <mxCell id="_ffmf1GVqU57bWkAei6Z-78" value="Attempts" style="shape=rhombus;perimeter=rhombusPerimeter;whiteSpace=wrap;html=1;align=center;" vertex="1" parent="1">
          <mxGeometry x="160" y="290" width="120" height="60" as="geometry" />
        </mxCell>
        <mxCell id="_ffmf1GVqU57bWkAei6Z-79" value="Cousre" style="shape=ext;margin=3;double=1;whiteSpace=wrap;html=1;align=center;" vertex="1" parent="1">
          <mxGeometry x="480" y="391.5" width="100" height="40" as="geometry" />
        </mxCell>
        <mxCell id="_ffmf1GVqU57bWkAei6Z-80" value="" style="shape=link;html=1;rounded=0;targetPerimeterSpacing=0;strokeWidth=1;entryX=0.5;entryY=0;entryDx=0;entryDy=0;exitX=0.5;exitY=1;exitDx=0;exitDy=0;labelPosition=left;verticalLabelPosition=middle;align=right;verticalAlign=middle;" edge="1" parent="1" source="_ffmf1GVqU57bWkAei6Z-60" target="_ffmf1GVqU57bWkAei6Z-79">
          <mxGeometry relative="1" as="geometry">
            <mxPoint x="240" y="280" as="sourcePoint" />
            <mxPoint x="400" y="280" as="targetPoint" />
          </mxGeometry>
        </mxCell>
        <mxCell id="_ffmf1GVqU57bWkAei6Z-81" value="&amp;nbsp;N" style="resizable=0;html=1;align=left;verticalAlign=bottom;labelPosition=left;verticalLabelPosition=top;" connectable="0" vertex="1" parent="_ffmf1GVqU57bWkAei6Z-80">
          <mxGeometry x="1" relative="1" as="geometry" />
        </mxCell>
        <mxCell id="_ffmf1GVqU57bWkAei6Z-82" value="" style="endArrow=none;html=1;rounded=0;strokeWidth=1;exitX=0.5;exitY=1;exitDx=0;exitDy=0;entryX=0.5;entryY=0;entryDx=0;entryDy=0;" edge="1" parent="1" source="_ffmf1GVqU57bWkAei6Z-11" target="_ffmf1GVqU57bWkAei6Z-78">
          <mxGeometry relative="1" as="geometry">
            <mxPoint x="220" y="280" as="sourcePoint" />
            <mxPoint x="380" y="280" as="targetPoint" />
          </mxGeometry>
        </mxCell>
        <mxCell id="_ffmf1GVqU57bWkAei6Z-83" value="N&amp;nbsp;" style="resizable=0;html=1;align=right;verticalAlign=bottom;" connectable="0" vertex="1" parent="_ffmf1GVqU57bWkAei6Z-82">
          <mxGeometry x="1" relative="1" as="geometry" />
        </mxCell>
        <mxCell id="_ffmf1GVqU57bWkAei6Z-86" value="Marks" style="ellipse;whiteSpace=wrap;html=1;align=center;" vertex="1" parent="1">
          <mxGeometry x="26.25" y="344.5" width="92.5" height="37" as="geometry" />
        </mxCell>
        <mxCell id="_ffmf1GVqU57bWkAei6Z-87" value="Grade" style="ellipse;whiteSpace=wrap;html=1;align=center;" vertex="1" parent="1">
          <mxGeometry x="26.25" y="394.5" width="92.5" height="37" as="geometry" />
        </mxCell>
        <mxCell id="_ffmf1GVqU57bWkAei6Z-88" value="" style="endArrow=none;html=1;rounded=0;exitX=1;exitY=0.5;exitDx=0;exitDy=0;entryX=0;entryY=0.5;entryDx=0;entryDy=0;" edge="1" source="_ffmf1GVqU57bWkAei6Z-92" parent="1" target="_ffmf1GVqU57bWkAei6Z-78">
          <mxGeometry relative="1" as="geometry">
            <mxPoint x="118.75000000000205" y="262.9999999999998" as="sourcePoint" />
            <mxPoint x="180" y="270" as="targetPoint" />
          </mxGeometry>
        </mxCell>
        <mxCell id="_ffmf1GVqU57bWkAei6Z-90" value="" style="endArrow=none;html=1;rounded=0;exitX=1;exitY=0.5;exitDx=0;exitDy=0;entryX=0;entryY=0.5;entryDx=0;entryDy=0;" edge="1" source="_ffmf1GVqU57bWkAei6Z-86" parent="1" target="_ffmf1GVqU57bWkAei6Z-78">
          <mxGeometry relative="1" as="geometry">
            <mxPoint x="176.25" y="404.5" as="sourcePoint" />
            <mxPoint x="180" y="390" as="targetPoint" />
          </mxGeometry>
        </mxCell>
        <mxCell id="_ffmf1GVqU57bWkAei6Z-91" value="" style="endArrow=none;html=1;rounded=0;entryX=1;entryY=0.5;entryDx=0;entryDy=0;exitX=0;exitY=0.5;exitDx=0;exitDy=0;" edge="1" target="_ffmf1GVqU57bWkAei6Z-87" parent="1" source="_ffmf1GVqU57bWkAei6Z-78">
          <mxGeometry relative="1" as="geometry">
            <mxPoint x="230" y="440" as="sourcePoint" />
            <mxPoint x="210" y="474.5" as="targetPoint" />
          </mxGeometry>
        </mxCell>
        <mxCell id="_ffmf1GVqU57bWkAei6Z-92" value="&lt;p style=&quot;line-height: 120%&quot;&gt;Semester&lt;/p&gt;" style="ellipse;whiteSpace=wrap;html=1;align=center;fontStyle=4;" vertex="1" parent="1">
          <mxGeometry x="22.5" y="240" width="100" height="40" as="geometry" />
        </mxCell>
        <mxCell id="_ffmf1GVqU57bWkAei6Z-94" value="" style="endArrow=none;html=1;rounded=0;exitX=1;exitY=0.5;exitDx=0;exitDy=0;" edge="1" source="_ffmf1GVqU57bWkAei6Z-95" parent="1">
          <mxGeometry relative="1" as="geometry">
            <mxPoint x="118.75000000000205" y="312.9999999999998" as="sourcePoint" />
            <mxPoint x="160" y="320" as="targetPoint" />
          </mxGeometry>
        </mxCell>
        <mxCell id="_ffmf1GVqU57bWkAei6Z-95" value="&lt;p style=&quot;line-height: 120%&quot;&gt;Year&lt;/p&gt;" style="ellipse;whiteSpace=wrap;html=1;align=center;fontStyle=4;" vertex="1" parent="1">
          <mxGeometry x="22.5" y="290" width="100" height="40" as="geometry" />
        </mxCell>
        <mxCell id="_ffmf1GVqU57bWkAei6Z-97" value="" style="endArrow=none;html=1;rounded=0;strokeWidth=1;entryX=0.5;entryY=1;entryDx=0;entryDy=0;exitX=0;exitY=0.5;exitDx=0;exitDy=0;" edge="1" parent="1" source="_ffmf1GVqU57bWkAei6Z-79" target="_ffmf1GVqU57bWkAei6Z-78">
          <mxGeometry relative="1" as="geometry">
            <mxPoint x="220" y="400" as="sourcePoint" />
            <mxPoint x="340" y="230" as="targetPoint" />
            <Array as="points">
              <mxPoint x="220" y="412" />
            </Array>
          </mxGeometry>
        </mxCell>
        <mxCell id="_ffmf1GVqU57bWkAei6Z-98" value="&amp;nbsp;M" style="resizable=0;html=1;align=left;verticalAlign=top;labelPosition=right;verticalLabelPosition=bottom;" connectable="0" vertex="1" parent="_ffmf1GVqU57bWkAei6Z-97">
          <mxGeometry x="1" relative="1" as="geometry" />
        </mxCell>
      </root>
    </mxGraphModel>
  </diagram>
</mxfile>
